<mxfile host="app.diagrams.net" agent="Mozilla/5.0 (Windows NT 10.0; Win64; x64) AppleWebKit/537.36 (KHTML, like Gecko) Chrome/133.0.0.0 Safari/537.36 Edg/133.0.0.0" version="26.0.15">
  <diagram name="Page-1" id="_nDV24wAXLFLyXAoJBCz">
    <mxGraphModel dx="1426" dy="781" grid="1" gridSize="10" guides="1" tooltips="1" connect="1" arrows="1" fold="1" page="1" pageScale="1" pageWidth="850" pageHeight="1100" math="0" shadow="0">
      <root>
        <mxCell id="0" />
        <mxCell id="1" parent="0" />
        <mxCell id="6tzpD3UTo3038pvK3o-k-1" value="&lt;font style=&quot;font-size: 24px;&quot;&gt;High Level summary of IT work effort&lt;/font&gt;" style="rounded=0;whiteSpace=wrap;html=1;" vertex="1" parent="1">
          <mxGeometry x="80" y="120" width="680" height="60" as="geometry" />
        </mxCell>
        <mxCell id="6tzpD3UTo3038pvK3o-k-2" value="Process Step" style="rounded=1;whiteSpace=wrap;html=1;" vertex="1" parent="1">
          <mxGeometry x="80" y="210" width="200" height="60" as="geometry" />
        </mxCell>
        <mxCell id="6tzpD3UTo3038pvK3o-k-3" value="Data Sets" style="rounded=1;whiteSpace=wrap;html=1;" vertex="1" parent="1">
          <mxGeometry x="300" y="210" width="200" height="60" as="geometry" />
        </mxCell>
        <mxCell id="6tzpD3UTo3038pvK3o-k-4" value="Before member elects to participate in the program" style="rounded=1;whiteSpace=wrap;html=1;" vertex="1" parent="1">
          <mxGeometry x="80" y="280" width="200" height="60" as="geometry" />
        </mxCell>
        <mxCell id="6tzpD3UTo3038pvK3o-k-5" value="After member elects to participate in the program including future opt out of the program and/or termination&amp;nbsp;" style="rounded=1;whiteSpace=wrap;html=1;" vertex="1" parent="1">
          <mxGeometry x="80" y="350" width="200" height="170" as="geometry" />
        </mxCell>
        <mxCell id="6tzpD3UTo3038pvK3o-k-6" value="Processing payments specific to the PPP in addition to existing premium payments if any" style="rounded=1;whiteSpace=wrap;html=1;" vertex="1" parent="1">
          <mxGeometry x="80" y="532" width="200" height="60" as="geometry" />
        </mxCell>
        <mxCell id="6tzpD3UTo3038pvK3o-k-7" value="Reporting to CMS" style="rounded=1;whiteSpace=wrap;html=1;" vertex="1" parent="1">
          <mxGeometry x="80" y="600" width="200" height="60" as="geometry" />
        </mxCell>
      </root>
    </mxGraphModel>
  </diagram>
</mxfile>
